<svg xmlns="http://www.w3.org/2000/svg" width="100" height="26" viewBox="0 0 100 26" fill="none"><path d="M3.08269 9.17027H2.30534C1.69439 9.17027 1.10847 8.91547 0.676469 8.46191C0.244466 8.00836 0.00177002 7.3932 0.00177002 6.75178C0.00177002 6.11035 0.244466 5.4952 0.676469 5.04164C1.10847 4.58809 1.69439 4.33328 2.30534 4.33328H3.08269C3.69364 4.33328 4.27956 4.58809 4.71156 5.04164C5.14356 5.4952 5.38626 6.11035 5.38626 6.75178C5.38626 7.3932 5.14356 8.00836 4.71156 8.46191C4.27956 8.91547 3.69364 9.17027 3.08269 9.17027Z" fill="#AED580"></path><path d="M19.9167 9.17027H10.29C9.98751 9.17027 9.68796 9.10772 9.40848 8.98618C9.129 8.86464 8.87506 8.68649 8.66115 8.46191C8.44724 8.23733 8.27756 7.97072 8.1618 7.6773C8.04603 7.38387 7.98645 7.06938 7.98645 6.75178C7.98645 6.43418 8.04603 6.11969 8.1618 5.82626C8.27756 5.53283 8.44724 5.26622 8.66115 5.04164C8.87506 4.81707 9.129 4.63892 9.40848 4.51738C9.68796 4.39584 9.98751 4.33328 10.29 4.33328H19.9167C20.2192 4.33328 20.5188 4.39584 20.7983 4.51738C21.0777 4.63892 21.3317 4.81707 21.5456 5.04164C21.7595 5.26622 21.9292 5.53283 22.0449 5.82626C22.1607 6.11969 22.2203 6.43418 22.2203 6.75178C22.2203 7.06938 22.1607 7.38387 22.0449 7.6773C21.9292 7.97072 21.7595 8.23733 21.5456 8.46191C21.3317 8.68649 21.0777 8.86464 20.7983 8.98618C20.5188 9.10772 20.2192 9.17027 19.9167 9.17027Z" fill="#70B2E2"></path><path d="M19.9167 26H19.1413C18.5303 26 17.9444 25.7452 17.5124 25.2917C17.0804 24.8381 16.8377 24.223 16.8377 23.5816C16.8377 22.9401 17.0804 22.325 17.5124 21.8714C17.9444 21.4179 18.5303 21.1631 19.1413 21.1631H19.9167C20.5277 21.1631 21.1136 21.4179 21.5456 21.8714C21.9776 22.325 22.2203 22.9401 22.2203 23.5816C22.2203 24.223 21.9776 24.8381 21.5456 25.2917C21.1136 25.7452 20.5277 26 19.9167 26Z" fill="#4CB6AC"></path><path d="M11.9322 26H2.30552C1.69458 26 1.10865 25.7452 0.676652 25.2917C0.24465 24.8381 0.00195313 24.223 0.00195312 23.5816C0.00195313 22.9401 0.24465 22.325 0.676652 21.8714C1.10865 21.4179 1.69458 21.1631 2.30552 21.1631H11.9322C12.5432 21.1631 13.1291 21.4179 13.5611 21.8714C13.9931 22.325 14.2358 22.9401 14.2358 23.5816C14.2358 24.223 13.9931 24.8381 13.5611 25.2917C13.1291 25.7452 12.5432 26 11.9322 26Z" fill="#FFD54E"></path><path d="M7.5322 17.5851H2.30357C1.69262 17.5851 1.1067 17.3303 0.674699 16.8768C0.242696 16.4232 0 15.8081 0 15.1666C0 14.5252 0.242696 13.9101 0.674699 13.4565C1.1067 13.0029 1.69262 12.7481 2.30357 12.7481H7.5322C8.14315 12.7481 8.72907 13.0029 9.16107 13.4565C9.59307 13.9101 9.83577 14.5252 9.83577 15.1666C9.83577 15.8081 9.59307 16.4232 9.16107 16.8768C8.72907 17.3303 8.14315 17.5851 7.5322 17.5851Z" fill="#F58967"></path><path d="M19.9186 17.5851H14.7394C14.1285 17.5851 13.5426 17.3303 13.1106 16.8768C12.6785 16.4232 12.4359 15.8081 12.4359 15.1666C12.4359 14.5252 12.6785 13.9101 13.1106 13.4565C13.5426 13.0029 14.1285 12.7481 14.7394 12.7481H19.9186C20.2211 12.7481 20.5207 12.8107 20.8002 12.9322C21.0797 13.0538 21.3336 13.2319 21.5475 13.4565C21.7614 13.6811 21.9311 13.9477 22.0469 14.2411C22.1626 14.5345 22.2222 14.849 22.2222 15.1666C22.2222 15.4842 22.1626 15.7987 22.0469 16.0922C21.9311 16.3856 21.7614 16.6522 21.5475 16.8768C21.3336 17.1013 21.0797 17.2795 20.8002 17.401C20.5207 17.5226 20.2211 17.5851 19.9186 17.5851Z" fill="#7B86C2"></path><path d="M44.9765 25.2769C43.6012 25.7416 42.1559 25.9859 40.6983 26C37.1716 26 35.5151 24.0862 35.5151 20.5827V10.9781H33.9019C33.8253 10.9885 33.7473 10.9817 33.674 10.9581C33.6007 10.9345 33.5341 10.8949 33.4794 10.8423C33.4248 10.7897 33.3836 10.7256 33.3591 10.655C33.3345 10.5845 33.3274 10.5094 33.3382 10.4358V8.63001L35.5151 7.79881V5.52547C35.5213 5.35512 35.5775 5.18994 35.6773 5.04907C35.7771 4.90821 35.9163 4.79744 36.0788 4.7296L39.0483 3.32487C39.4608 3.10668 39.761 3.32487 39.761 3.7945V7.58269H43.9637C44.0402 7.57231 44.1182 7.57917 44.1915 7.60276C44.2648 7.62634 44.3314 7.66599 44.3861 7.71858C44.4408 7.77117 44.482 7.83527 44.5065 7.90581C44.531 7.97635 44.5381 8.0514 44.5273 8.12505V10.4358C44.5381 10.5094 44.531 10.5845 44.5065 10.655C44.482 10.7256 44.4408 10.7897 44.3861 10.8423C44.3314 10.8949 44.2648 10.9345 44.1915 10.9581C44.1182 10.9817 44.0402 10.9885 43.9637 10.9781H39.761V19.6455C39.761 21.8108 40.4737 22.5692 42.0869 22.5339C42.9272 22.5076 43.7602 22.3742 44.564 22.137C44.9009 22.0269 45.0521 22.3178 45.1277 22.7147L45.5035 24.7366C45.5402 25.0254 45.24 25.1688 44.9765 25.2769Z" fill="#323338"></path><path d="M47.3781 2.38347C47.3781 0.793797 48.5788 0 50.0517 0C51.5526 0 52.7167 0.793797 52.7167 2.38347C52.7167 4.11652 51.5526 4.76694 50.0517 4.76694C48.5788 4.76694 47.3781 4.11652 47.3781 2.38347ZM47.9417 8.12499V25.0981C47.9308 25.1717 47.9379 25.2467 47.9624 25.3172C47.9869 25.3876 48.0282 25.4516 48.0829 25.5041C48.1376 25.5565 48.2043 25.596 48.2777 25.6193C48.351 25.6426 48.429 25.6492 48.5054 25.6384H51.6196C51.696 25.6492 51.774 25.6426 51.8473 25.6193C51.9207 25.596 51.9873 25.5565 52.0421 25.5041C52.0968 25.4516 52.138 25.3876 52.1625 25.3172C52.1871 25.2467 52.1941 25.1717 52.1833 25.0981V8.12499C52.1941 8.05134 52.1869 7.97629 52.1624 7.90575C52.1379 7.83521 52.0967 7.77111 52.042 7.71852C51.9874 7.66593 51.9208 7.62628 51.8474 7.60269C51.7741 7.57911 51.6961 7.57224 51.6196 7.58263H48.5054C48.4288 7.57224 48.3508 7.57911 48.2775 7.60269C48.2042 7.62628 48.1376 7.66593 48.0829 7.71852C48.0283 7.77111 47.9871 7.83521 47.9626 7.90575C47.9381 7.97629 47.9309 8.05134 47.9417 8.12499Z" fill="#323338"></path><path d="M70.8339 25.6384H67.2705C67.1336 25.6471 66.997 25.6176 66.8771 25.5535C66.7572 25.4894 66.6591 25.3933 66.5945 25.2768L62.8778 19.608L59.2755 25.2768C59.2154 25.3886 59.1237 25.4819 59.011 25.5459C58.8983 25.6098 58.7692 25.6419 58.6384 25.6384H55.0339C54.5847 25.6384 54.4335 25.3495 54.697 24.988L60.4762 16.358L54.846 8.23303C54.6301 7.87146 54.7726 7.58262 55.2607 7.58262H58.7874C58.9286 7.57801 59.0686 7.60894 59.1936 7.67236C59.3186 7.73577 59.4242 7.82947 59.5001 7.94419L63.0289 13.4696L66.4066 7.94419C66.4712 7.82771 66.5693 7.73164 66.6892 7.6675C66.8091 7.60336 66.9457 7.57389 67.0826 7.58262H70.6482C71.0974 7.58262 71.2485 7.87146 71.0218 8.23303L65.3851 16.5741L71.2162 24.988C71.4321 25.3516 71.2853 25.6384 70.8339 25.6384Z" fill="#323338"></path><path d="M73.1598 2.38347C73.1598 0.793797 74.3627 0 75.8248 0C77.3365 0 78.4898 0.793797 78.4898 2.38347C78.4898 4.11652 77.3279 4.76694 75.8248 4.76694C74.3627 4.76694 73.1598 4.11652 73.1598 2.38347ZM73.7213 8.12499V25.0981C73.7104 25.1717 73.7175 25.2467 73.742 25.3172C73.7665 25.3876 73.8078 25.4516 73.8625 25.5041C73.9172 25.5565 73.9839 25.596 74.0572 25.6193C74.1306 25.6426 74.2085 25.6492 74.285 25.6384H77.3992C77.4756 25.6492 77.5536 25.6426 77.6269 25.6193C77.7002 25.596 77.7669 25.5565 77.8216 25.5041C77.8763 25.4516 77.9176 25.3876 77.9421 25.3172C77.9666 25.2467 77.9737 25.1717 77.9628 25.0981V8.12499C77.9736 8.05134 77.9665 7.97629 77.942 7.90575C77.9175 7.83521 77.8763 7.77111 77.8216 7.71852C77.7669 7.66593 77.7003 7.62628 77.627 7.60269C77.5537 7.57911 77.4757 7.57224 77.3992 7.58263H74.2871C74.2106 7.57224 74.1326 7.57911 74.0593 7.60269C73.986 7.62628 73.9193 7.66593 73.8647 7.71852C73.81 7.77111 73.7688 7.83521 73.7443 7.90575C73.7198 7.97629 73.7127 8.05134 73.7235 8.12499H73.7213Z" fill="#323338"></path><path d="M80.9346 16.6116C80.9346 9.78532 85.0249 7.22314 90.4672 7.22314C95.9096 7.22314 99.9999 10.0035 99.9999 16.6116C99.9999 22.7147 95.9096 26 90.4672 26C85.0249 26 80.9346 22.7147 80.9346 16.6116ZM95.6828 16.6116C95.6828 12.2062 93.5815 10.7932 90.4672 10.7932C87.353 10.7932 85.2539 12.2062 85.2539 16.6116C85.2539 20.9754 87.3552 22.43 90.4716 22.43C93.5879 22.43 95.6785 20.9878 95.6785 16.6116H95.6828Z" fill="#323338"></path></svg>